<svg width="30" height="30" fill="none" xmlns="http://www.w3.org/2000/svg"><g clip-path="url(#clip0)" fill="#404040"><path d="M6.798 26.097a.44.44 0 00-.44.44v3.024a.44.44 0 00.88 0v-3.025a.44.44 0 00-.44-.44z"/><path d="M27.095 22.977h-1.407a4.673 4.673 0 00-2.32-2.235l-5.731-2.456-.003-.001-.031-.014c0-.033.003-.066.003-.1V15.86a5.608 5.608 0 001.918-4.225v-.415h.577c.675 0 1.223-.548 1.223-1.223v-1.55c0-.561-.382-1.035-.9-1.177v-.9A6.379 6.379 0 0014.055 0h-.296a6.379 6.379 0 00-6.372 6.371v.898c-.518.142-.9.616-.9 1.178v1.55c0 .674.549 1.223 1.224 1.223h.574v.415c0 1.683.745 3.196 1.921 4.226v2.31l.002.122-5.688 2.473a4.683 4.683 0 00-2.873 4.326v4.468a.44.44 0 10.88 0v-4.468c0-1.54.916-2.919 2.339-3.518l3.677-1.599.464.793a.44.44 0 00.758-.444l-.41-.701.948-.413.181.14c.002 0 .003.002.004.003l2.731 2.104-1.83 1.64-.84-1.433a.44.44 0 00-.758.444l1.11 1.898a.44.44 0 00.673.105l1.653-1.48-1.323 6.846a.44.44 0 10.863.167l1.14-5.896 1.139 5.896a.44.44 0 10.863-.167l-1.324-6.847 1.653 1.481a.44.44 0 00.673-.105l2.375-4.057 3.731 1.599a3.795 3.795 0 011.666 1.43H19.92a1.26 1.26 0 00-1.258 1.258v4.506A1.26 1.26 0 0019.92 30h7.175a1.26 1.26 0 001.259-1.258v-4.506a1.26 1.26 0 00-1.259-1.259zm-6.65-12.98c0 .19-.154.344-.344.344h-.576V8.103h.576c.19 0 .344.154.344.344v1.55zM7.71 10.34a.345.345 0 01-.344-.345v-1.55c0-.189.155-.343.345-.343h.574v2.238H7.71zm1.454 1.293l.001-3.97v-.01c.01-.286.085-.813.465-1.263a2.053 2.053 0 011.027-.64c.632-.183 1.031 0 1.583.252.534.245 1.14.523 2.034.478.681-.034 1.178-.243 1.573-.443a.44.44 0 00-.397-.784c-.38.192-.733.325-1.219.35-.68.033-1.14-.177-1.625-.4-.585-.268-1.247-.57-2.193-.297-.598.172-1.088.481-1.456.918a2.888 2.888 0 00-.63 1.399h-.06V6.37a5.499 5.499 0 015.49-5.49h.295a5.499 5.499 0 015.493 5.492v.853h-.04a2.798 2.798 0 00-.332-1.045 2.892 2.892 0 00-1.663-1.338.44.44 0 00-.252.842c.179.053.788.277 1.147.923a1.985 1.985 0 01.24 1.057v3.972a4.746 4.746 0 01-4.742 4.74 4.746 4.746 0 01-4.74-4.74zm1.982 7.116a2.803 2.803 0 01-.06-.578v-1.678c.829.483 1.792.76 2.82.76a5.586 5.586 0 002.822-.762v1.68a2.85 2.85 0 01-.06.577l-2.762 2.128-2.76-2.127zm5.278 4.348l-1.83-1.64 2.935-2.263.735.315.208.09-2.048 3.497zm11.052 5.644a.38.38 0 01-.38.379H19.92a.38.38 0 01-.379-.38v-4.505c0-.21.17-.38.38-.38h7.174a.38.38 0 01.379.38v4.506z"/><path d="M26.65 25.813c0-.66-.556-1.196-1.24-1.196h-.774a.44.44 0 00-.44.44v2.911a.44.44 0 10.88 0v-.624l.805.915a.438.438 0 00.62.04.44.44 0 00.04-.62l-.666-.757a1.2 1.2 0 00.775-1.109zm-1.24-.317c.196 0 .361.145.361.317 0 .172-.165.318-.36.318h-.332v-.318l-.001-.317h.333zm-2.544-.879a.44.44 0 00-.44.44v.966H21.29v-.967a.44.44 0 10-.88 0v2.912a.44.44 0 10.88 0v-1.066h1.136v1.066a.44.44 0 10.879 0v-2.912a.44.44 0 00-.44-.44z"/></g><defs><clipPath id="clip0"><path fill="#fff" d="M0 0h30v30H0z"/></clipPath></defs></svg>