<svg width="30" height="30" fill="none" xmlns="http://www.w3.org/2000/svg"><g clip-path="url(#clip0)" fill="#404040"><path d="M17.187 26.24c.101.005.198.01.3.01 1.084 0 1.988-.392 2.698-1.162l.019-.019c.253-.304.54-.581.844-.872.207-.198.42-.401.618-.613.946-.987.941-2.237-.01-3.188l-2.629-2.629c-.452-.47-.991-.72-1.563-.72-.568 0-1.112.245-1.578.71l-1.554 1.555c-.139-.078-.282-.147-.42-.216a6.491 6.491 0 01-.48-.259c-1.425-.904-2.717-2.085-3.953-3.602-.623-.785-1.034-1.44-1.324-2.113.406-.37.784-.752 1.148-1.126.134-.133.268-.272.406-.41.988-.987.988-2.21 0-3.192L8.404 7.088c-.152-.152-.3-.304-.447-.452-.291-.295-.59-.604-.89-.88-.453-.453-.988-.688-1.555-.688-.563 0-1.107.235-1.578.687L2.297 7.388a3.41 3.41 0 00-1.015 2.173c-.083 1.051.11 2.168.609 3.515.77 2.08 1.928 4.013 3.644 6.08 2.09 2.49 4.599 4.46 7.468 5.849 1.093.52 2.556 1.13 4.184 1.236zm-10.78-7.809c-1.633-1.965-2.727-3.792-3.45-5.747-.448-1.204-.614-2.14-.545-3.031a2.26 2.26 0 01.687-1.467l1.628-1.628c.25-.24.522-.365.79-.365.262 0 .52.125.77.37.29.271.572.557.867.857.147.153.3.31.457.462l1.305 1.305c.535.535.535 1.061 0 1.596-.138.139-.277.277-.41.415-.406.41-.785.798-1.205 1.172l-.023.023c-.373.374-.318.733-.226 1.001.005.014.01.023.014.037.337.812.812 1.582 1.54 2.505 1.316 1.619 2.7 2.878 4.23 3.851.19.12.388.222.582.319.175.087.337.17.48.258l.05.028c.148.073.291.11.439.11.364 0 .595-.23.669-.309l1.637-1.637c.25-.25.517-.379.78-.379.323 0 .586.204.756.379l2.639 2.638c.646.646.35 1.227-.014 1.61-.184.199-.378.383-.581.581-.31.296-.628.605-.918.95-.498.536-1.089.785-1.86.785-.073 0-.151-.005-.225-.01-1.435-.092-2.763-.65-3.764-1.125-2.731-1.315-5.116-3.183-7.1-5.554zm7.21-10.563a.565.565 0 00-.19 1.111 6.199 6.199 0 013.345 1.735 6.182 6.182 0 011.734 3.344.564.564 0 00.655.462.56.56 0 00.461-.65 7.293 7.293 0 00-2.048-3.954 7.306 7.306 0 00-3.958-2.048zm9.553 6.467c.032 0 .064-.005.097-.01a.56.56 0 00.46-.65 12.03 12.03 0 00-3.385-6.532 12.059 12.059 0 00-6.536-3.385.565.565 0 00-.19 1.111 10.935 10.935 0 015.923 3.073 10.935 10.935 0 013.073 5.922c.046.277.286.47.558.47z"/></g><defs><clipPath id="clip0"><path fill="#fff" transform="translate(1.25 3.75)" d="M0 0h22.5v22.5H0z"/></clipPath></defs></svg>