<svg width="30" height="30" viewBox="0 0 30 30" fill="none" xmlns="http://www.w3.org/2000/svg">
<g clip-path="url(#clip0)">
<path d="M6.79807 26.0968C6.55531 26.0968 6.35861 26.2936 6.35861 26.5363V29.5605C6.35861 29.8031 6.55531 29.9999 6.79807 29.9999C7.04082 29.9999 7.23752 29.8031 7.23752 29.5605V26.5363C7.23752 26.2936 7.04082 26.0968 6.79807 26.0968Z" fill="#404040"/>
<path d="M27.0954 22.9775H25.6878C25.2037 21.9829 24.3911 21.1957 23.3673 20.742L17.6369 18.2857C17.6358 18.2853 17.6347 18.285 17.6337 18.2846L17.6027 18.2713C17.6036 18.238 17.6057 18.2047 17.6057 18.1714V15.8593C18.7809 14.8285 19.5241 13.3167 19.5241 11.6345V11.2195H20.1012C20.7757 11.2195 21.3244 10.6709 21.3244 9.99641V8.4469C21.3244 7.88464 20.9425 7.41103 20.4248 7.26864V6.37146C20.4248 2.85819 17.5665 0 14.0531 0H13.7579C10.2445 0 7.38607 2.85819 7.38607 6.37146V7.26858C6.86833 7.41091 6.48636 7.88458 6.48636 8.44696V9.99646C6.48636 10.6709 7.03503 11.2196 7.7095 11.2196H8.28448V11.6346C8.28448 13.318 9.02874 14.8306 10.2052 15.8614V18.1715C10.2052 18.212 10.206 18.2525 10.2073 18.2928L4.51914 20.7661C2.77399 21.5004 1.64636 23.1982 1.64636 25.0916V29.5601C1.64636 29.8028 1.84306 29.9996 2.08581 29.9996C2.32857 29.9996 2.52527 29.8028 2.52527 29.5601V25.0916C2.52527 23.5528 3.44173 22.173 4.86479 21.5742L8.54159 19.9755L9.00553 20.7681C9.12817 20.9775 9.39741 21.0478 9.60682 20.9253C9.81623 20.8027 9.88666 20.5335 9.76408 20.324L9.35352 19.6227L10.3023 19.2102L10.4833 19.3497C10.4847 19.3507 10.486 19.3518 10.4874 19.3528L13.2184 21.4573L11.3877 23.0975L10.5483 21.6636C10.4257 21.4541 10.1565 21.3838 9.94701 21.5063C9.7376 21.629 9.66717 21.8982 9.78975 22.1076L10.9009 24.0058C10.9676 24.1197 11.0819 24.1975 11.2122 24.218C11.2349 24.2216 11.2576 24.2233 11.2802 24.2233C11.3876 24.2233 11.4922 24.1838 11.5735 24.1111L13.2262 22.6304L11.903 29.4771C11.8569 29.7154 12.0127 29.9459 12.251 29.9919C12.4894 30.038 12.7198 29.8821 12.7658 29.6439L13.9053 23.7479L15.0448 29.6439C15.0853 29.854 15.2694 30 15.4757 30C15.5034 30 15.5314 29.9974 15.5596 29.9919C15.7979 29.9459 15.9537 29.7154 15.9076 29.4771L14.5844 22.6304L16.2371 24.1111C16.3184 24.1838 16.4229 24.2233 16.5304 24.2233C16.553 24.2233 16.5757 24.2215 16.5984 24.218C16.7287 24.1976 16.843 24.1197 16.9097 24.0058L19.2848 19.9487L23.0161 21.5478C23.708 21.8543 24.2824 22.3513 24.6824 22.9775H19.9204C19.2266 22.9775 18.6622 23.5419 18.6622 24.2357V28.7416C18.6622 29.4354 19.2266 29.9999 19.9204 29.9999H27.0954C27.7892 29.9999 28.3536 29.4354 28.3536 28.7416V24.2357C28.3536 23.5419 27.7892 22.9775 27.0954 22.9775ZM20.4454 9.99641C20.4454 10.1862 20.2909 10.3406 20.1012 10.3406H19.5251V8.10266H20.1012C20.2909 8.10266 20.4454 8.25712 20.4454 8.4469V9.99641ZM7.7095 10.3406C7.51972 10.3406 7.36527 10.1862 7.36527 9.99641V8.4469C7.36527 8.25712 7.51972 8.10266 7.7095 8.10266H8.28448V10.3406H7.7095ZM9.16338 11.6345L9.16444 7.66321C9.16444 7.66034 9.16409 7.65753 9.16403 7.65466C9.17393 7.36825 9.24922 6.8415 9.62873 6.39068C10.0105 5.93734 10.4962 5.79701 10.6558 5.7509C11.2884 5.56808 11.6871 5.7506 12.2388 6.00314C12.7733 6.24789 13.3789 6.52562 14.2735 6.48109C14.9544 6.44745 15.4505 6.23822 15.846 6.03794C16.0625 5.92826 16.1491 5.66388 16.0395 5.44732C15.9298 5.23082 15.6654 5.14428 15.4489 5.25385C15.0691 5.44621 14.7164 5.57927 14.2301 5.60324C13.55 5.63687 13.0909 5.42658 12.6048 5.20404C12.0204 4.9365 11.3583 4.63317 10.412 4.9065C9.81354 5.07935 9.32387 5.38826 8.95643 5.82461C8.55864 6.29705 8.39288 6.81841 8.32614 7.22353H8.26509V6.37146C8.26509 3.34288 10.7292 0.878903 13.7579 0.878903H14.0531C17.0819 0.878903 19.546 3.34282 19.546 6.37146V7.22353H19.5064C19.4706 6.91093 19.3784 6.54619 19.1741 6.17857C18.823 5.54693 18.2012 5.04678 17.5108 4.84076C17.2784 4.7715 17.0335 4.90369 16.9641 5.13619C16.8946 5.36875 17.0269 5.61355 17.2595 5.68299C17.4377 5.73613 18.0469 5.95984 18.4058 6.6056C18.6227 6.99577 18.6559 7.38665 18.6456 7.64581C18.6454 7.65161 18.6453 7.65747 18.6453 7.66327V11.6346C18.6453 14.2485 16.5185 16.3752 13.9044 16.3752C11.2902 16.3752 9.16338 14.2485 9.16338 11.6345ZM11.1447 18.7498C11.1288 18.6729 11.1149 18.5953 11.1054 18.5162C11.0913 18.4044 11.0842 18.2884 11.0842 18.1715V16.4937C11.9136 16.9769 12.8772 17.2542 13.9043 17.2542C14.9324 17.2542 15.8968 16.9764 16.7268 16.4924V18.1715C16.7268 18.2816 16.7203 18.3927 16.7074 18.5027C16.6978 18.5859 16.6841 18.6681 16.6673 18.7488L13.9053 20.8771L11.1447 18.7498ZM16.423 23.0975L14.5922 21.4573L17.5277 19.1953L18.2625 19.5101L18.4708 19.5994L16.423 23.0975ZM27.4747 28.7416C27.4747 28.9508 27.3046 29.121 27.0954 29.121H19.9204C19.7113 29.121 19.5411 28.9508 19.5411 28.7416V24.2357C19.5411 24.0266 19.7112 23.8564 19.9204 23.8564H25.4041C25.4043 23.8564 25.4046 23.8565 25.4049 23.8565C25.4053 23.8565 25.4057 23.8564 25.4061 23.8564H27.0954C27.3045 23.8564 27.4747 24.0266 27.4747 24.2357V28.7416Z" fill="#404040"/>
<path d="M26.65 25.8131C26.65 25.1535 26.0941 24.6168 25.4108 24.6168H24.6369C24.6367 24.6168 24.6366 24.6168 24.6365 24.6168C24.6363 24.6168 24.6362 24.6168 24.636 24.6168C24.3932 24.6168 24.1965 24.8136 24.1965 25.0563V27.9684C24.1965 28.2111 24.3932 28.4079 24.636 28.4079C24.8787 28.4079 25.0754 28.2111 25.0754 27.9684V27.3439L25.8807 28.2588C25.9675 28.3575 26.0889 28.4079 26.2108 28.4079C26.3139 28.4079 26.4174 28.3718 26.5009 28.2983C26.6831 28.138 26.7008 27.8603 26.5405 27.6781L25.8747 26.9217C26.3286 26.744 26.65 26.3145 26.65 25.8131ZM25.4108 25.4957C25.6061 25.4957 25.7711 25.641 25.7711 25.8131C25.7711 25.9852 25.6061 26.1305 25.4108 26.1305C25.3315 26.1305 25.2062 26.131 25.0794 26.1316C25.0788 26.0092 25.0783 25.8891 25.0783 25.8132C25.0783 25.748 25.078 25.6245 25.0777 25.4958H25.4108V25.4957Z" fill="#404040"/>
<path d="M22.8656 24.6168C22.6228 24.6168 22.4261 24.8136 22.4261 25.0563V26.023H21.2897V25.0563C21.2897 24.8136 21.093 24.6168 20.8502 24.6168C20.6075 24.6168 20.4108 24.8136 20.4108 25.0563V27.9684C20.4108 28.2111 20.6075 28.4079 20.8502 28.4079C21.093 28.4079 21.2897 28.2111 21.2897 27.9684V26.9019H22.4261V27.9684C22.4261 28.2111 22.6228 28.4079 22.8656 28.4079C23.1084 28.4079 23.305 28.2111 23.305 27.9684V25.0563C23.305 24.8136 23.1084 24.6168 22.8656 24.6168Z" fill="#404040"/>
</g>
<defs>
<clipPath id="clip0">
<rect width="30" height="30" fill="white"/>
</clipPath>
</defs>
</svg>
