<svg width="30" height="30" viewBox="0 0 30 30" fill="none" xmlns="http://www.w3.org/2000/svg">
<g clip-path="url(#clip0)">
<path d="M17.1869 26.2408C17.2883 26.2454 17.3852 26.25 17.4867 26.25C18.5707 26.25 19.4748 25.8579 20.1852 25.0876C20.1898 25.083 20.1991 25.0738 20.2037 25.0691C20.4574 24.7647 20.7434 24.4879 21.0478 24.1973C21.2554 23.999 21.4676 23.796 21.666 23.5838C22.6116 22.5966 22.607 21.3466 21.6567 20.3963L19.0274 17.767C18.5753 17.2965 18.0356 17.0474 17.4636 17.0474C16.8962 17.0474 16.3519 17.2918 15.886 17.7577L14.3315 19.3123C14.1931 19.2339 14.0501 19.1647 13.9117 19.0955C13.7364 19.0078 13.575 18.9248 13.432 18.8372C12.0066 17.933 10.715 16.7521 9.47876 15.2345C8.85602 14.4503 8.44547 13.7953 8.15486 13.1218C8.5608 12.7528 8.93905 12.3699 9.30347 11.9963C9.43724 11.8625 9.57101 11.7241 9.7094 11.5857C10.6966 10.5986 10.6966 9.37617 9.7094 8.39363L8.40396 7.08818C8.25173 6.93596 8.10412 6.78374 7.95651 6.63612C7.6659 6.3409 7.36606 6.03184 7.06623 5.75507C6.61417 5.30301 6.07907 5.06775 5.51169 5.06775C4.94892 5.06775 4.4046 5.30301 3.93409 5.75507L2.29652 7.38802C1.69685 7.98769 1.3555 8.71653 1.28169 9.56068C1.19866 10.6124 1.3924 11.7287 1.89059 13.0757C2.66094 15.1561 3.81877 17.0889 5.53475 19.1554C7.62438 21.6464 10.1338 23.6161 13.003 25.0046C14.0962 25.5258 15.5585 26.1347 17.1869 26.2408ZM6.40659 18.4312C4.77363 16.4661 3.68038 14.6394 2.95616 12.6836C2.50871 11.4796 2.34265 10.5432 2.41184 9.65294C2.46258 9.07633 2.684 8.59659 3.09916 8.18605L4.7275 6.55771C4.9766 6.31784 5.24876 6.19329 5.5163 6.19329C5.77924 6.19329 6.03756 6.31784 6.28665 6.56232C6.57726 6.83448 6.85865 7.12047 7.15387 7.42031C7.30148 7.57254 7.45371 7.72937 7.61055 7.8816L8.91599 9.18704C9.45108 9.72213 9.45108 10.248 8.91599 10.7831C8.7776 10.9215 8.63922 11.0599 8.50544 11.1982C8.09951 11.6088 7.72125 11.9963 7.30148 12.3699C7.29226 12.3791 7.28764 12.3838 7.27842 12.393C6.90478 12.7666 6.96013 13.1264 7.05239 13.394C7.057 13.4078 7.06161 13.417 7.06623 13.4309C7.40297 14.2427 7.87809 15.0131 8.60693 15.9357C9.92159 17.5548 11.3055 18.8141 12.8369 19.7874C13.0261 19.9073 13.2244 20.0088 13.4181 20.1057C13.5934 20.1933 13.7549 20.2764 13.8979 20.364C13.9163 20.3732 13.9302 20.3825 13.9486 20.3917C14.0962 20.4655 14.2392 20.5024 14.3868 20.5024C14.7513 20.5024 14.9819 20.2718 15.0557 20.1933L16.6933 18.5558C16.9424 18.3067 17.2099 18.1775 17.4729 18.1775C17.7958 18.1775 18.0587 18.3805 18.2294 18.5558L20.8679 21.1943C21.5137 21.8401 21.2185 22.4214 20.8541 22.8042C20.6696 23.0026 20.4758 23.1871 20.2729 23.3854C19.9638 23.6807 19.6455 23.9897 19.3549 24.3357C18.8567 24.8708 18.2663 25.1199 17.4959 25.1199C17.4221 25.1199 17.3437 25.1153 17.2699 25.1107C15.8353 25.0184 14.5068 24.4602 13.5058 23.9851C10.775 22.6704 8.39012 20.8022 6.40659 18.4312Z" fill="#404040"/>
<path d="M13.6165 7.86774C13.3074 7.817 13.0168 8.02458 12.9661 8.32903C12.9153 8.63809 13.1229 8.9287 13.4274 8.97944C14.6959 9.19625 15.8491 9.79592 16.7717 10.7139C17.6897 11.6318 18.2893 12.7897 18.5061 14.0582C18.5523 14.335 18.7921 14.5287 19.0643 14.5287C19.0966 14.5287 19.1289 14.5241 19.1612 14.5195C19.4702 14.4688 19.6778 14.1735 19.6225 13.8691C19.3687 12.3699 18.6584 10.9999 17.5743 9.91586C16.4811 8.82722 15.1157 8.12145 13.6165 7.86774Z" fill="#404040"/>
<path d="M23.1697 14.3349C23.202 14.3349 23.2343 14.3303 23.2666 14.3257C23.5757 14.275 23.7833 13.9797 23.7279 13.6753C23.3081 11.1936 22.1365 8.93789 20.3421 7.14348C18.543 5.34908 16.2873 4.17741 13.8056 3.75764C13.4966 3.70689 13.206 3.91447 13.1552 4.21892C13.1045 4.52798 13.312 4.8186 13.6165 4.86934C15.863 5.2522 17.9111 6.31316 19.5394 7.94151C21.1678 9.56985 22.2287 11.618 22.6116 13.8644C22.6577 14.1412 22.8976 14.3349 23.1697 14.3349Z" fill="#404040"/>
</g>
<defs>
<clipPath id="clip0">
<rect width="22.5" height="22.5" fill="white" transform="translate(1.25 3.75)"/>
</clipPath>
</defs>
</svg>
